<?xml version="1.0" standalone="no"?>
<!DOCTYPE svg PUBLIC "-//W3C//DTD SVG 20010904//EN"
 "http://www.w3.org/TR/2001/REC-SVG-20010904/DTD/svg10.dtd">
<svg version="1.0" xmlns="http://www.w3.org/2000/svg"
 width="233.000000pt" height="230.000000pt" viewBox="0 0 233.000000 230.000000"
 preserveAspectRatio="xMidYMid meet">

<g transform="translate(0.000000,230.000000) scale(0.100000,-0.100000)"
fill="#000000" stroke="none">
<path d="M978 2210 c-124 -26 -179 -45 -298 -106 -291 -148 -478 -396 -561
-743 -27 -112 -29 -323 -5 -424 51 -211 143 -367 316 -538 147 -145 321 -247
497 -291 74 -19 116 -23 263 -23 163 0 181 2 260 27 196 63 348 157 492 306
280 290 375 634 277 1001 -25 93 -103 259 -165 353 -54 80 -164 196 -244 256
-108 80 -282 154 -438 187 -100 21 -284 18 -394 -5z m422 -64 c98 -23 177 -52
249 -92 276 -151 465 -410 532 -729 21 -99 16 -315 -10 -414 -113 -430 -552
-781 -977 -781 -150 0 -328 41 -454 105 -226 115 -442 348 -525 566 -122 318
-65 683 150 964 169 221 402 355 690 399 59 9 281 -3 345 -18z"/>
<path d="M995 2065 c-200 -45 -335 -118 -476 -257 -165 -163 -256 -357 -279
-593 -8 -86 -7 -129 4 -195 21 -131 71 -257 98 -248 7 3 10 104 9 324 -1 200
2 330 8 347 12 30 45 36 84 16 12 -6 95 -83 184 -171 89 -88 166 -159 172
-157 6 2 61 54 123 115 114 112 164 154 179 154 5 0 9 -209 9 -464 l0 -464
-30 -32 c-26 -28 -35 -32 -63 -26 -17 3 -44 20 -59 36 -30 32 -35 68 -17 103
8 13 13 109 16 265 l4 245 -62 -57 c-70 -65 -95 -78 -124 -63 -11 5 -75 61
-141 123 -67 63 -125 114 -128 114 -9 0 -6 -557 3 -613 7 -40 17 -58 62 -103
104 -107 244 -184 404 -224 123 -31 296 -32 410 -1 153 41 319 138 430 251
l40 41 3 332 c2 182 1 329 -2 327 -3 -3 -44 -43 -93 -90 -131 -127 -171 -160
-194 -160 -11 0 -54 27 -95 60 -41 33 -76 60 -79 60 -8 0 -5 -220 5 -409 8
-152 8 -178 -6 -198 -37 -57 -101 -54 -141 6 l-23 34 0 453 c0 250 2 454 4
454 22 0 138 -88 222 -170 l106 -102 157 155 c161 159 198 187 251 187 l31 0
-2 -342 c-1 -208 2 -343 8 -345 28 -10 74 98 93 220 16 94 8 278 -14 362 -82
304 -288 543 -566 653 -115 46 -206 62 -339 61 -69 -1 -153 -7 -186 -14z m313
-53 c23 -4 43 -11 44 -17 0 -5 -24 -25 -55 -42 -30 -18 -71 -52 -91 -75 -20
-23 -37 -40 -39 -37 -2 2 -11 22 -19 44 -21 55 -67 85 -129 85 -27 0 -49 4
-49 9 0 8 58 26 110 34 42 7 183 6 228 -1z m350 -135 c77 -50 119 -89 183
-167 71 -86 108 -160 80 -160 -9 0 -134 -113 -267 -241 -45 -44 -86 -79 -92
-79 -14 0 -72 68 -72 85 0 7 15 22 33 33 50 32 83 72 114 137 25 53 28 72 28
155 0 94 0 96 -47 184 -27 48 -48 90 -48 92 0 12 29 -1 88 -39z m-857 7 c10
-12 15 -61 19 -172 4 -135 7 -156 23 -166 15 -9 21 -7 34 9 12 17 14 45 10
168 -4 160 3 193 40 171 16 -10 19 -31 23 -174 4 -143 7 -164 23 -174 15 -9
21 -7 33 8 11 15 14 55 14 172 0 168 7 191 49 157 22 -18 22 -23 19 -188 -3
-161 -4 -173 -29 -220 -19 -35 -47 -65 -98 -102 l-71 -53 0 30 c0 24 -6 32
-33 44 -42 17 -84 67 -96 114 -5 20 -12 107 -15 192 -5 131 -4 159 10 178 18
26 27 27 45 6z m657 2 c78 -41 135 -139 140 -242 5 -93 -27 -167 -95 -219 -56
-42 -96 -45 -168 -11 -98 46 -150 137 -143 246 6 77 27 127 76 176 60 60 134
79 190 50z m-776 -203 c4 -174 5 -179 33 -231 16 -29 46 -69 67 -88 51 -45 64
-79 43 -110 -8 -13 -21 -24 -29 -24 -7 0 -79 64 -161 142 -81 79 -163 153
-181 166 -19 12 -34 27 -34 33 0 35 215 289 245 289 9 0 14 -42 17 -177z m-29
-724 c37 -33 67 -65 67 -70 0 -5 -36 -9 -80 -9 l-80 0 0 70 c0 49 4 70 13 70
6 0 42 -28 80 -61z m1137 -15 l0 -65 -72 3 c-75 3 -100 20 -56 37 13 5 43 30
67 55 24 25 48 43 53 40 4 -3 8 -34 8 -70z m-922 -132 c7 -1 12 -19 12 -47 l0
-45 -160 0 -160 0 0 33 c0 43 9 55 45 59 31 3 241 3 263 0z m810 1 l112 -6 0
-44 0 -44 -157 3 -158 3 -3 48 -3 47 48 0 c26 0 99 -3 161 -7z m-790 -203 c1
-19 -1 -40 -5 -47 -9 -13 -281 -22 -301 -9 -13 8 -17 78 -5 90 4 3 75 5 157 4
l151 -3 3 -35z m902 -10 l0 -51 -157 3 -158 3 -3 33 c-6 63 -8 62 163 62 l155
0 0 -50z m-101 -124 c10 -12 2 -21 -46 -52 -117 -75 -216 -109 -395 -133 -166
-23 -357 26 -535 138 -67 42 -57 51 57 51 l99 0 17 -35 c19 -40 77 -93 112
-102 52 -13 146 43 164 98 2 7 24 -8 55 -39 57 -57 103 -73 153 -52 34 14 110
93 110 114 0 18 24 23 121 25 56 1 80 -3 88 -13z"/>
<path d="M1302 1774 c-60 -73 -68 -158 -19 -230 39 -58 79 -84 104 -68 32 20
25 47 -20 79 -69 50 -71 117 -6 197 12 15 19 33 16 42 -11 27 -44 18 -75 -20z"/>
<path d="M1006 534 c-9 -8 -16 -19 -16 -24 0 -14 30 -40 45 -40 12 0 35 29 35
44 0 8 -31 36 -40 36 -5 0 -16 -7 -24 -16z"/>
<path d="M1302 541 c-8 -4 -12 -19 -10 -32 2 -19 9 -24 33 -24 33 0 45 25 25
50 -14 17 -29 19 -48 6z"/>
</g>
</svg>
